<svg width="150" height="40" viewBox="0 0 150 40" fill="none" xmlns="http://www.w3.org/2000/svg">
  <path d="M20 0C8.95431 0 0 8.95431 0 20C0 31.0457 8.95431 40 20 40C31.0457 40 40 31.0457 40 20C40 8.95431 31.0457 0 20 0ZM20 36C11.1634 36 4 28.8366 4 20C4 11.1634 11.1634 4 20 4V36Z" fill="#0D6EFD"/>
  <path d="M20 4C28.8366 4 36 11.1634 36 20C36 28.8366 28.8366 36 20 36V4Z" fill="#0D6EFD" fill-opacity="0.6"/>
  <text x="50" y="28" font-family="Raleway, sans-serif" font-size="24" font-weight="700" fill="#212529">Company</text>
</svg>
